<?xml version="1.0" encoding="UTF-8" standalone="no"?>
<svg
   xmlns:dc="http://purl.org/dc/elements/1.1/"
   xmlns:cc="http://creativecommons.org/ns#"
   xmlns:rdf="http://www.w3.org/1999/02/22-rdf-syntax-ns#"
   xmlns:svg="http://www.w3.org/2000/svg"
   xmlns="http://www.w3.org/2000/svg"
   xmlns:sodipodi="http://sodipodi.sourceforge.net/DTD/sodipodi-0.dtd"
   xmlns:inkscape="http://www.inkscape.org/namespaces/inkscape"
   width="99.99958mm"
   height="100.0001mm"
   viewBox="0 0 99.99958 100.0001"
   version="1.1"
   id="svg8"
   inkscape:version="1.0.2-2 (e86c870879, 2021-01-15)"
   sodipodi:docname="hq.svg">
  <defs
     id="defs2">
    <rect
       x="-117.68199"
       y="50.430238"
       width="110.36905"
       height="66.52381"
       id="rect849" />
  </defs>
  <sodipodi:namedview
     id="base"
     pagecolor="#00004f"
     bordercolor="#666666"
     borderopacity="1.0"
     inkscape:pageopacity="0"
     inkscape:pageshadow="2"
     inkscape:zoom="0.35"
     inkscape:cx="200.69788"
     inkscape:cy="161.47977"
     inkscape:document-units="mm"
     inkscape:current-layer="layer1"
     inkscape:document-rotation="0"
     showgrid="false"
     inkscape:snap-object-midpoints="true"
     inkscape:window-width="1366"
     inkscape:window-height="705"
     inkscape:window-x="-8"
     inkscape:window-y="-8"
     inkscape:window-maximized="1"
     inkscape:pagecheckerboard="false" />
  <metadata
     id="metadata5">
    <rdf:RDF>
      <cc:Work
         rdf:about="">
        <dc:format>image/svg+xml</dc:format>
        <dc:type
           rdf:resource="http://purl.org/dc/dcmitype/StillImage" />
        <dc:title />
      </cc:Work>
    </rdf:RDF>
  </metadata>
  <g
     inkscape:label="Layer 1"
     inkscape:groupmode="layer"
     id="layer1"
     transform="translate(-73.573969,-107.88262)">
    <path
       id="rect10"
       style="fill:#ffffff;stroke:#ffffff;stroke-width:0.264583"
       d="m 73.573969,207.88272 v -100.0001 h 99.999581 v 100.0001 z m 9.999906,-9.99991 H 163.57364 V 117.88304 H 83.573875 Z" />
    <text
       xml:space="preserve"
       id="text847"
       style="fill:black;fill-opacity:1;line-height:1.25;stroke:none;font-family:sans-serif;font-style:normal;font-weight:normal;font-size:10.58333333px;white-space:pre;shape-inside:url(#rect849);" />
    <text
       xml:space="preserve"
       style="font-style:normal;font-weight:normal;font-size:10.5833px;line-height:1.25;font-family:sans-serif;fill:#ffffff;fill-opacity:1;stroke:none;stroke-width:0.264583;"
       x="-33.771271"
       y="80.668335"
       id="text855"><tspan
         sodipodi:role="line"
         id="tspan853"
         x="-33.771271"
         y="80.668335"
         style="stroke-width:0.264583;fill:#ffffff;" /></text>
    <g
       aria-label="HQ"
       id="text859"
       style="font-style:normal;font-variant:normal;font-weight:bold;font-stretch:normal;font-size:39.6875px;line-height:1.25;font-family:sans-serif;-inkscape-font-specification:'sans-serif Bold';fill:#ffffff;fill-opacity:1;stroke:none;stroke-width:0.264583"
       transform="matrix(1,0,0,-1,-0.10373463,316.38763)">
      <path
         d="m 119.00143,169.11478 h -7.44141 v -12.71241 h -10.9877 v 12.71241 h -7.441407 v -28.85483 h 7.441407 v 10.56137 h 10.9877 v -10.56137 h 7.44141 z"
         style="font-style:normal;font-variant:normal;font-weight:bold;font-stretch:normal;font-size:39.6875px;font-family:sans-serif;-inkscape-font-specification:'sans-serif Bold';fill:#ffffff;stroke-width:0.264583"
         id="path861" />
      <path
         d="m 144.56188,162.00281 q 1.08521,-1.31775 1.60843,-3.10059 0.52322,-1.80221 0.52322,-4.22455 0,-2.59674 -0.60073,-4.41833 -0.60074,-1.8216 -1.56968,-2.94556 -0.98831,-1.16272 -2.28668,-1.68594 -1.27899,-0.52323 -2.67425,-0.52323 -1.41465,0 -2.67426,0.50385 -1.24023,0.50384 -2.28668,1.66656 -0.96893,1.08521 -1.58905,3.0037 -0.60074,1.89911 -0.60074,4.41833 0,2.57736 0.58136,4.39896 0.60074,1.80221 1.56967,2.94555 0.96894,1.14335 2.26731,1.68595 1.29837,0.5426 2.73239,0.5426 1.43402,0 2.73239,-0.5426 1.29837,-0.56198 2.2673,-1.7247 z m 0.79453,6.76315 q 0.0775,1.91849 1.04644,2.75177 0.96894,0.83328 3.31376,0.83328 0.79452,0 1.87973,-0.2713 1.0852,-0.2713 1.51153,-0.48446 h 0.73639 v 5.11596 q -1.0852,0.25192 -2.3642,0.44571 -1.25961,0.19379 -3.87573,0.19379 -2.30606,0 -4.03076,-0.58136 -1.70532,-0.56198 -2.84866,-1.60843 -1.12397,-1.02707 -1.68595,-2.42233 -0.56198,-1.39527 -0.65887,-3.10059 -6.47247,-0.36819 -10.09628,-4.32144 -3.60444,-3.97263 -3.60444,-10.61951 0,-6.95694 3.95325,-10.9877 3.95325,-4.05014 10.91019,-4.05014 6.93756,0 10.91019,4.05014 3.97262,4.03076 3.97262,10.9877 0,5.13535 -2.32544,8.87543 -2.32544,3.7207 -6.74377,5.19348 z"
         style="font-style:normal;font-variant:normal;font-weight:bold;font-stretch:normal;font-size:39.6875px;font-family:sans-serif;-inkscape-font-specification:'sans-serif Bold';fill:#ffffff;stroke-width:0.264583"
         id="path863" />
    </g>
  </g>
</svg>
